<?xml version="1.0" standalone="no"?>
<!DOCTYPE svg PUBLIC "-//W3C//DTD SVG 20010904//EN"
 "http://www.w3.org/TR/2001/REC-SVG-20010904/DTD/svg10.dtd">
<svg version="1.0" xmlns="http://www.w3.org/2000/svg"
 width="700.000000pt" height="700.000000pt" viewBox="0 0 700.000000 700.000000"
 preserveAspectRatio="xMidYMid meet">
<metadata>
Created by potrace 1.11, written by Peter Selinger 2001-2013
</metadata>
<g transform="translate(0.000000,700.000000) scale(0.100000,-0.100000)"
fill="#000000" stroke="none">
<path d="M1839 6450 c-13 -3 -34 -12 -45 -20 -11 -8 -166 -267 -344 -575 -178
-308 -344 -596 -370 -640 -26 -44 -83 -143 -127 -220 -118 -204 -425 -736
-618 -1070 -228 -393 -228 -394 -227 -431 1 -19 19 -61 42 -98 22 -37 40 -68
40 -71 0 -3 16 -29 35 -59 19 -30 35 -57 35 -59 0 -3 61 -109 135 -236 74
-127 135 -236 135 -241 0 -6 5 -10 10 -10 6 0 10 -4 10 -9 0 -5 44 -86 98
-179 54 -93 102 -175 105 -183 4 -8 18 -32 32 -54 13 -22 41 -69 62 -105 20
-36 117 -204 216 -375 99 -170 191 -330 205 -355 14 -25 81 -142 150 -260 69
-118 134 -231 144 -250 11 -19 43 -75 71 -123 29 -49 68 -117 87 -151 46 -82
60 -100 90 -116 21 -11 324 -13 1697 -13 l1672 0 30 24 c16 13 30 27 30 31 1
3 64 115 141 248 77 133 140 245 140 248 0 3 6 13 14 21 8 9 26 39 40 66 15
28 31 57 37 65 14 23 169 290 193 335 13 22 89 155 171 295 81 140 158 273
170 295 13 22 46 81 75 130 29 50 64 110 78 135 14 25 44 77 67 115 22 39 44
77 48 85 4 8 15 29 25 45 25 40 425 733 442 765 17 31 14 89 -5 111 -8 8 -15
19 -15 24 0 5 -20 41 -45 81 -25 39 -45 74 -45 78 0 3 -15 29 -33 58 -19 29
-45 73 -59 98 -14 25 -109 191 -213 370 -103 179 -195 339 -205 355 -40 69
-175 304 -285 495 -148 257 -292 506 -316 545 -10 17 -30 53 -45 80 -14 28
-35 62 -45 77 -11 14 -19 28 -19 31 0 3 -27 51 -60 106 -33 56 -60 103 -60
105 0 2 -28 51 -62 108 -33 56 -75 128 -92 158 -42 76 -57 95 -86 110 -20 11
-329 13 -1675 14 -908 1 -1662 -1 -1676 -4z"/>
</g>
</svg>
