<?xml version="1.0" encoding="utf-8"?>
<!-- Generator: Adobe Illustrator 21.0.0, SVG Export Plug-In . SVG Version: 6.00 Build 0)  -->
<svg version="1.1" xmlns="http://www.w3.org/2000/svg" xmlns:xlink="http://www.w3.org/1999/xlink" x="0px" y="0px"
	 viewBox="0 0 512 512" style="enable-background:new 0 0 512 512;" xml:space="preserve">
<style type="text/css">
	.st0{fill:#467082;stroke:#000000;stroke-width:8;stroke-linecap:round;stroke-linejoin:round;stroke-miterlimit:10;}
	.st1{stroke:#000000;stroke-width:8;stroke-linecap:round;stroke-linejoin:round;stroke-miterlimit:10;}
	.st2{fill:none;stroke:#FFFFFF;stroke-width:16;stroke-linecap:round;stroke-linejoin:round;stroke-miterlimit:10;}
	.st3{display:none;}
	.st4{display:inline;fill:none;stroke:#000000;stroke-miterlimit:10;}
</style>
<g id="Layer_2_copy_2">
	<rect x="135.9" y="48" class="st0" width="240.2" height="138.7"/>
	<rect x="66.6" y="205.2" transform="matrix(0.866 -0.5 0.5 0.866 -144.458 111.542)" class="st0" width="138.7" height="240.2"/>
	<rect x="256" y="256" transform="matrix(0.5 -0.866 0.866 0.5 -93.7025 488.3692)" class="st0" width="240.2" height="138.7"/>
</g>
<g id="Layer_2_copy">
	<polygon class="st1" points="135.9,186.7 135.9,48 15.8,256 	"/>
	<polygon class="st1" points="135.9,464 256,394.7 376.1,464 	"/>
	<polygon class="st1" points="376.1,186.7 376.1,48 496.2,256 	"/>
	<polygon class="st1" points="135.9,186.7 376.1,186.7 256,394.7 	"/>
</g>
<g id="Layer_2">
	<line class="st2" x1="376.1" y1="186.7" x2="376.1" y2="48"/>
	<line class="st2" x1="135.9" y1="48" x2="376.1" y2="48"/>
	<line class="st2" x1="135.9" y1="186.7" x2="135.9" y2="48"/>
	<line class="st2" x1="376.1" y1="186.7" x2="135.9" y2="186.7"/>
	<line class="st2" x1="256" y1="394.7" x2="135.9" y2="186.7"/>
	<line class="st2" x1="15.8" y1="256" x2="135.9" y2="186.7"/>
	<line class="st2" x1="135.9" y1="48" x2="15.8" y2="256"/>
	<line class="st2" x1="256" y1="394.7" x2="135.9" y2="464"/>
	<line class="st2" x1="15.8" y1="256" x2="135.9" y2="464"/>
	<line class="st2" x1="376.1" y1="464" x2="135.9" y2="464"/>
	<line class="st2" x1="256" y1="394.7" x2="376.1" y2="464"/>
	<line class="st2" x1="376.1" y1="186.7" x2="256" y2="394.7"/>
	<line class="st2" x1="496.2" y1="256" x2="376.1" y2="186.7"/>
	<line class="st2" x1="376.1" y1="464" x2="496.2" y2="256"/>
	<line class="st2" x1="376.1" y1="48" x2="496.2" y2="256"/>
</g>
<g id="Layer_1" class="st3">
	<line class="st4" x1="256" y1="256" x2="256" y2="456"/>
	<line class="st4" x1="256" y1="256" x2="429.2" y2="156"/>
	<line class="st4" x1="256" y1="256" x2="82.8" y2="156"/>
	<line class="st4" x1="429.2" y1="156" x2="429.2" y2="356"/>
	<line class="st4" x1="82.8" y1="156" x2="82.8" y2="356"/>
	<line class="st4" x1="429.2" y1="156" x2="256" y2="56"/>
	<line class="st4" x1="82.8" y1="156" x2="256" y2="56"/>
	<line class="st4" x1="256" y1="456" x2="429.2" y2="356"/>
	<line class="st4" x1="256" y1="456" x2="82.8" y2="356"/>
</g>
</svg>
